<?xml version="1.0" encoding="iso-8859-1"?>
<!-- Generator: Adobe Illustrator 19.0.0, SVG Export Plug-In . SVG Version: 6.00 Build 0)  -->
<svg version="1.1" id="Layer_1" xmlns="http://www.w3.org/2000/svg" xmlns:xlink="http://www.w3.org/1999/xlink" x="0px" y="0px"
	 viewBox="0 0 495 495" style="enable-background:new 0 0 495 495;" xml:space="preserve">
<g>
	<path style="fill:#FFDE55;" d="M95.5,297.5v-100h73.716l78.284,78.284L87.38,115.664C57.792,151.535,40,197.479,40,247.5
		C40,361.916,133.084,455,247.5,455V297.5H95.5z"/>
	<path style="fill:#FFDE55;" d="M247.5,197.5v-50h-40v-40h40V40c-50.021,0-95.965,17.792-131.836,47.38L247.5,219.216L225.784,197.5
		H247.5z"/>
	<path style="fill:#FFD422;" d="M247.5,40v67.5h67c33.084,0,60,26.916,60,60v10h-40v-10c0-11.028-8.972-20-20-20h-67v50h152v100
		h-73.716l-2.541-2.541l84.377,84.376C437.208,343.465,455,297.521,455,247.5C455,133.084,361.916,40,247.5,40z"/>
	<path style="fill:#FFD422;" d="M269.216,297.5H247.5V455c50.021,0,95.965-17.792,131.836-47.38L247.5,275.784L269.216,297.5z"/>
	<path style="fill:#006DF0;" d="M207.5,147.5h107c11.028,0,20,8.972,20,20v10h40v-10c0-33.084-26.916-60-60-60h-107V147.5z"/>
	<polygon style="fill:#FFFFFF;" points="95.5,197.5 95.5,297.5 269.216,297.5 169.216,197.5 	"/>
	<polygon style="fill:#FFFFFF;" points="309.5,197.5 225.784,197.5 309.5,281.216 	"/>
	<rect x="309.5" y="197.5" style="fill:#006DF0;" width="90" height="50"/>
	<polygon style="fill:#005ECE;" points="399.5,297.5 399.5,247.5 309.5,247.5 309.5,281.216 325.784,297.5 	"/>
	<path style="fill:#FF6243;" d="M422.509,72.491C375.762,25.745,313.61,0,247.5,0S119.238,25.745,72.491,72.491S0,181.39,0,247.5
		s25.745,128.262,72.491,175.009S181.39,495,247.5,495s128.262-25.745,175.009-72.491S495,313.61,495,247.5
		S469.255,119.238,422.509,72.491z M247.5,455C133.084,455,40,361.916,40,247.5c0-50.021,17.792-95.965,47.38-131.836
		L379.336,407.62C343.465,437.208,297.521,455,247.5,455z M407.62,379.336L115.664,87.38C151.535,57.792,197.479,40,247.5,40
		C361.916,40,455,133.084,455,247.5C455,297.521,437.208,343.465,407.62,379.336z"/>
</g>
<g>
</g>
<g>
</g>
<g>
</g>
<g>
</g>
<g>
</g>
<g>
</g>
<g>
</g>
<g>
</g>
<g>
</g>
<g>
</g>
<g>
</g>
<g>
</g>
<g>
</g>
<g>
</g>
<g>
</g>
</svg>
